<?xml version="1.0" standalone="no"?>
<svg version="1.1" id="downloadSvg" xmlns="http://www.w3.org/2000/svg" xmlns:xlink="http://www.w3.org/1999/xlink" x="0px" y="0px" viewBox="0 0 1200 1200" enable-background="new 0 0 1200 1200" xml:space="preserve" height="512" width="512">
<g>
	<path fill="#FFD224" d="M1103.305,328.24H96.274c-9.654,0-17.508,7.855-17.508,17.506c0,9.627,7.854,17.459,17.508,17.459h1007.03&#10;&#9;&#9;c9.626,0,17.459-7.832,17.459-17.459C1120.764,336.096,1112.931,328.24,1103.305,328.24z" style="fill: rgb(148, 0, 211);"/>
	<g>
		<g>
			<path fill="#0CB2D3" d="M233.379,297.031h65.748v-65.746h-65.748V297.031z M244.56,242.465h43.388v43.387H244.56V242.465z" style="fill: rgb(148, 0, 211);"/>
			<path fill="#0CB2D3" d="M311.021,308.926h-89.534v-89.533h89.534V308.926z M256.453,273.959h19.601v-19.6h-19.601V273.959z" style="fill: rgb(148, 0, 211);"/>
		</g>
		<g>
			<path fill="#0CB2D3" d="M348.081,297.031h65.745v-65.746h-65.745V297.031z M359.258,242.465h43.388v43.387h-43.388V242.465z" style="fill: rgb(148, 0, 211);"/>
			<path fill="#0CB2D3" d="M425.719,308.926h-89.533v-89.533h89.533V308.926z M371.151,273.959h19.601v-19.6h-19.601V273.959z" style="fill: rgb(148, 0, 211);"/>
		</g>
		<g>
			<path fill="#0CB2D3" d="M482.379,231.285v65.746h65.745v-65.746H482.379z M536.945,285.852h-43.388v-43.387h43.388V285.852z" style="fill: rgb(148, 0, 211);"/>
			<path fill="#0CB2D3" d="M560.018,308.926h-89.532v-89.533h89.532V308.926z M505.451,273.959h19.601v-19.6h-19.601V273.959z" style="fill: rgb(148, 0, 211);"/>
		</g>
	</g>
	<g>
		<path fill="#FFD224" d="M350.045,740.461l104.429-110.75c3.218-3.357,4.932-7.764,4.829-12.41c-0.102-4.688-2.03-9.059-5.526-12.4&#10;&#9;&#9;&#9;c-6.716-6.285-18.17-6.031-24.676,0.76L301.346,741.125l127.953,128.152c3.215,3.363,7.789,5.293,12.549,5.293&#10;&#9;&#9;&#9;c4.678,0,9.068-1.813,12.351-5.096c3.31-3.307,5.131-7.695,5.131-12.363c0-4.666-1.821-9.057-5.119-12.354L350.045,740.461z" style="fill: rgb(148, 0, 211);"/>
		<path fill="#FFD224" d="M770.458,605.691c-6.284-6.709-17.603-7.305-24.8-0.701c-3.385,3.238-5.305,7.594-5.407,12.266&#10;&#9;&#9;&#9;c-0.103,4.662,1.622,9.084,4.783,12.381L849.49,740.461L745.375,844.754c-6.816,6.813-6.816,17.902,0,24.715&#10;&#9;&#9;&#9;c3.289,3.293,7.621,5.104,12.195,5.104l0.163-0.002c4.681,0,9.071-1.813,12.367-5.109l128.083-128.338L770.458,605.691z" style="fill: rgb(148, 0, 211);"/>
		<path fill="#FFD224" d="M661.102,600.164c-2.488-1.285-5.275-1.963-8.063-1.963c-6.637,0-12.595,3.674-15.466,9.418&#10;&#9;&#9;&#9;L510.958,851.004c-2.184,4.146-2.597,8.902-1.168,13.387c1.408,4.416,4.439,8.037,8.765,10.311&#10;&#9;&#9;&#9;c2.485,1.238,5.136,1.867,7.877,1.867c6.543,0,12.492-3.586,15.545-9.404l126.57-243.385&#10;&#9;&#9;&#9;C673.021,615.271,669.715,604.695,661.102,600.164z" style="fill: rgb(148, 0, 211);"/>
	</g>
	<path fill="#F26D4E" d="M917.103,100.412H282.477c-112.327,0-203.71,91.361-203.71,203.662v591.383&#10;&#9;&#9;c0,112.297,91.383,203.66,203.71,203.66h634.626c112.298,0,203.661-91.363,203.661-203.66V304.074&#10;&#9;&#9;C1120.764,191.773,1029.401,100.412,917.103,100.412z M917.103,1064.15H282.477c-93.044,0-168.743-75.676-168.743-168.693V304.074&#10;&#9;&#9;c0-93.021,75.699-168.695,168.743-168.695h634.626c93.019,0,168.694,75.674,168.694,168.695v591.383&#10;&#9;&#9;C1085.797,988.475,1010.122,1064.15,917.103,1064.15z" style="fill: rgb(148, 0, 211);"/>
</g>
</svg>